{"glyphs":{":":{"x_min":0,"x_max":195,"ha":195,"o":"m 63 309 q 63 326 74 336 q 84 346 102 346 q 121 346 131 336 q 141 326 141 309 q 141 291 131 280 q 121 270 102 270 q 84 270 74 280 q 63 291 63 309 z m 26 28 q 26 45 36 55 q 47 65 65 65 q 84 65 94 55 q 104 45 104 28 q 104 10 94 0 q 84 -11 65 -11 q 47 -11 36 0 q 26 10 26 28 z"},"$":{"x_min":0,"x_max":460,"ha":460,"o":"m 446 595 l 434 489 q 434 485 428 485 q 422 485 422 489 q 422 544 400 583 q 377 622 316 623 l 269 353 l 291 338 q 330 313 352 294 q 375 275 391 248 q 407 221 407 185 q 407 167 405 157 q 393 89 340 42 q 288 -5 205 -11 l 188 -109 q 187 -114 180 -114 q 175 -114 172 -112 q 169 -109 170 -105 l 186 -12 l 181 -12 q 148 -12 118 -4 q 88 3 56 22 q 52 25 51 30 q 50 35 50 41 l 60 171 q 60 176 66 176 q 71 176 71 171 q 68 107 97 58 q 126 9 189 3 l 241 301 l 237 304 q 201 328 179 346 q 157 365 142 391 q 128 417 128 452 q 128 466 131 481 q 143 547 190 586 q 238 626 300 634 l 315 722 q 316 727 323 727 q 328 727 331 724 q 334 722 333 718 l 319 636 l 329 636 q 380 636 434 612 q 447 605 446 595 z m 252 364 l 297 622 q 240 616 210 572 q 181 528 181 477 q 181 442 200 416 q 218 389 252 364 z m 349 154 q 349 198 326 228 q 302 259 258 290 l 207 2 q 257 3 296 32 q 335 60 346 122 q 349 139 349 154 z"},"?":{"x_min":0,"x_max":295,"ha":295,"o":"m 131 256 q 131 284 135 310 q 140 341 156 361 q 172 381 204 407 q 236 433 255 456 q 274 480 281 517 q 284 531 284 543 q 284 576 266 594 q 248 613 215 613 q 186 613 174 600 q 161 587 153 565 q 147 548 139 538 q 131 527 117 527 q 104 527 98 536 q 92 545 94 558 q 98 585 136 605 q 175 625 222 625 q 272 625 302 600 q 333 576 333 532 q 333 519 330 505 q 322 465 300 438 q 278 412 257 394 q 236 377 230 372 q 191 338 174 311 q 157 284 151 248 q 147 232 147 191 q 147 187 142 187 q 137 187 137 191 q 131 220 131 256 z m 70 28 q 70 45 80 55 q 91 65 109 65 q 128 65 138 55 q 148 45 148 28 q 148 10 138 0 q 128 -11 109 -11 q 91 -11 80 0 q 70 10 70 28 z"},"<":{"x_min":0,"x_max":407,"ha":407,"o":"m 377 339 q 377 320 370 316 l 77 191 l 77 190 l 370 64 q 377 61 377 41 q 377 22 370 25 l 36 173 q 31 176 31 190 q 31 205 36 207 l 370 354 q 373 356 375 352 q 377 347 377 339 z"},"'":{"x_min":0,"x_max":127,"ha":127,"o":"m 111 609 q 112 618 129 627 q 146 636 163 639 q 180 642 179 637 l 73 308 q 72 305 68 304 q 63 304 63 306 z"},"=":{"x_min":0,"x_max":468,"ha":468,"o":"m 29 261 q 29 267 30 272 q 31 278 33 278 l 434 278 q 436 278 438 272 q 439 267 439 260 q 439 253 438 247 q 436 241 434 241 l 34 241 q 32 241 30 248 q 29 254 29 261 z m 29 121 q 29 127 30 132 q 31 138 33 138 l 434 138 q 436 138 438 132 q 439 127 439 120 q 439 113 438 107 q 436 101 434 101 l 34 101 q 32 101 30 108 q 29 114 29 121 z"},"a":{"x_min":0,"x_max":432,"ha":432,"o":"m 411 78 q 414 78 416 74 q 418 71 416 69 q 381 29 354 10 q 328 -9 304 -9 q 288 -9 281 0 q 274 10 274 32 q 274 53 280 89 l 299 200 q 252 104 192 46 q 133 -13 80 -13 q 20 -13 20 61 q 20 69 22 91 q 32 162 74 234 q 117 306 174 352 q 231 399 282 399 q 301 399 318 392 q 335 385 346 371 q 365 388 368 407 q 369 410 375 409 q 381 408 380 406 l 322 89 q 319 73 319 61 q 319 28 338 28 q 361 28 408 77 q 409 78 411 78 z m 313 283 q 315 291 315 305 q 315 333 299 350 q 283 367 253 367 q 216 367 177 335 q 138 303 108 248 q 79 193 69 127 q 66 106 66 89 q 66 30 109 30 q 146 30 189 68 q 232 106 266 166 q 301 225 313 283 z"},"L":{"x_min":0,"x_max":494,"ha":494,"o":"m 12 12 q 45 12 62 17 q 78 22 86 36 q 94 51 99 81 l 181 544 q 184 562 184 575 q 184 598 170 606 q 156 613 118 613 q 116 613 116 619 q 116 625 118 625 l 158 624 q 194 622 215 622 q 237 622 275 624 l 316 625 q 318 625 318 619 q 318 613 316 613 q 283 613 266 608 q 250 602 242 588 q 234 573 228 543 l 147 85 q 144 67 144 55 q 144 33 158 26 q 171 18 209 18 l 329 18 q 380 18 412 52 q 443 86 461 147 q 461 149 465 149 q 468 149 471 148 q 474 146 473 145 q 454 84 442 15 q 440 7 436 4 q 433 0 426 0 l 12 0 q 9 0 9 6 q 9 12 12 12 z"},"3":{"x_min":0,"x_max":392,"ha":392,"o":"m 246 340 q 295 336 320 302 q 346 268 346 215 q 346 192 342 172 q 333 118 304 76 q 275 35 233 12 q 191 -12 143 -12 q 59 -12 12 65 l 11 67 q 11 70 15 72 q 19 75 21 73 q 41 44 72 28 q 104 12 138 12 q 199 12 238 56 q 277 101 289 172 q 293 191 293 213 q 293 326 147 326 q 144 326 144 334 q 144 343 147 343 q 230 343 271 379 q 312 415 324 478 q 327 496 327 511 q 327 553 304 576 q 282 600 240 600 q 201 600 162 579 q 124 558 103 520 l 99 518 q 95 518 93 520 q 91 523 92 526 q 122 579 167 608 q 212 636 264 636 q 319 636 348 605 q 377 574 377 526 q 377 510 374 495 q 365 445 330 402 q 296 359 246 340 z"},";":{"x_min":0,"x_max":222,"ha":222,"o":"m 141 309 q 141 291 131 280 q 121 270 102 270 q 84 270 74 280 q 63 291 63 309 q 63 326 74 336 q 84 346 102 346 q 121 346 131 336 q 141 326 141 309 z m 121 2 q 121 -44 94 -82 q 66 -119 13 -159 q 12 -160 10 -160 q 7 -160 5 -156 q 3 -152 6 -150 q 44 -122 65 -94 q 86 -66 91 -34 q 92 -28 92 -18 q 92 -5 89 3 q 80 -8 62 -8 q 45 -8 36 2 q 26 11 26 27 q 26 44 38 54 q 49 63 70 63 q 93 63 107 47 q 121 31 121 2 z"},"J":{"x_min":0,"x_max":271,"ha":271,"o":"m -20 -193 q -22 -193 -24 -188 q -27 -184 -25 -182 q 20 -155 46 -100 q 73 -46 89 40 l 178 544 q 181 562 181 574 q 181 597 166 605 q 152 613 113 613 q 111 613 111 619 q 111 625 113 625 l 154 624 q 190 622 212 622 q 239 622 275 624 l 313 625 q 316 625 316 619 q 316 613 313 613 q 280 613 264 607 q 247 601 239 586 q 231 572 226 542 l 142 67 q 127 -12 108 -60 q 89 -108 60 -138 q 30 -169 -19 -193 z"},"V":{"x_min":0,"x_max":591,"ha":591,"o":"m 655 613 q 627 613 604 598 q 582 584 561 544 l 280 1 q 277 -3 269 -3 q 261 -3 260 1 l 146 542 q 139 581 124 597 q 110 613 84 613 q 82 613 82 619 q 82 625 84 625 l 119 624 q 145 622 156 622 q 181 622 215 624 l 251 625 q 255 625 255 619 q 255 613 251 613 q 222 613 207 604 q 192 595 192 572 q 192 559 194 552 l 298 76 l 544 550 q 556 576 556 585 q 556 600 542 606 q 527 613 495 613 q 492 613 492 619 q 492 625 495 625 l 527 624 q 557 622 579 622 q 595 622 619 624 l 655 625 q 659 625 659 619 q 659 613 655 613 z"},"\"":{"x_min":0,"x_max":315,"ha":315,"o":"m 134 609 q 135 618 152 627 q 169 636 186 639 q 203 642 202 637 l 96 308 q 95 305 90 304 q 86 304 86 306 z m 275 609 q 276 618 293 627 q 310 636 327 639 q 344 642 343 637 l 237 308 q 236 305 232 304 q 227 304 227 306 z"},"7":{"x_min":0,"x_max":389,"ha":389,"o":"m 60 11 l 388 577 q 393 584 386 584 q 251 584 198 580 q 144 576 124 563 q 105 550 90 516 q 90 514 86 514 q 83 514 81 516 q 79 517 80 519 l 132 653 q 132 654 136 654 q 145 654 144 650 q 141 643 141 637 q 141 630 150 628 q 158 625 181 625 l 420 625 q 424 625 426 620 q 428 615 426 612 l 112 11 q 106 0 97 0 l 65 0 q 61 0 60 4 q 58 7 60 11 z"},"S":{"x_min":0,"x_max":460,"ha":460,"o":"m 56 22 q 52 25 51 30 q 50 35 50 41 l 60 171 q 60 176 66 176 q 71 176 71 171 q 68 103 101 52 q 134 2 205 2 q 255 2 295 31 q 335 60 346 122 q 349 139 349 154 q 349 189 334 215 q 319 241 296 260 q 274 279 237 304 q 201 328 179 346 q 157 365 142 391 q 128 417 128 452 q 128 466 131 481 q 140 531 170 566 q 200 601 242 618 q 284 636 329 636 q 380 636 434 612 q 447 605 446 595 l 434 489 q 434 485 428 485 q 422 485 422 489 q 422 545 399 584 q 376 623 315 623 q 270 623 240 601 q 210 579 196 546 q 181 512 181 478 q 181 446 196 422 q 211 397 232 380 q 254 362 291 338 q 330 313 352 294 q 375 275 391 248 q 407 221 407 185 q 407 167 405 157 q 392 84 333 36 q 274 -12 181 -12 q 148 -12 118 -4 q 88 3 56 22 z"},"}":{"x_min":0,"x_max":260,"ha":260,"o":"m 227 642 q 227 608 214 528 q 201 450 201 407 q 201 317 252 310 q 255 310 255 304 q 255 297 252 297 q 203 291 177 232 q 151 173 134 79 q 119 -7 102 -48 q 86 -88 59 -102 q 32 -117 -20 -117 q -23 -117 -23 -111 q -23 -105 -20 -105 q 17 -105 41 -78 q 65 -50 74 1 q 99 125 113 174 q 127 223 150 252 q 174 280 224 303 q 187 324 172 348 q 158 373 158 417 q 158 446 164 488 q 169 529 181 607 q 184 627 184 643 q 184 677 169 695 q 154 713 126 713 q 123 713 123 719 q 123 725 126 725 q 183 725 205 708 q 227 691 227 642 z"},"Z":{"x_min":0,"x_max":545,"ha":545,"o":"m 26 0 q 22 0 21 4 q 20 9 22 13 l 489 600 q 494 605 494 606 q 493 608 487 608 q 312 608 252 603 q 191 598 168 579 q 145 560 118 501 q 116 497 111 498 q 106 500 108 504 l 170 655 q 170 656 173 656 q 176 656 179 654 q 182 653 181 651 q 179 646 179 639 q 179 630 188 628 q 198 625 226 625 l 554 625 q 558 625 560 620 q 562 615 559 612 l 97 27 q 93 22 94 20 q 94 19 99 19 l 338 19 q 401 19 434 44 q 468 69 488 131 q 488 134 492 134 q 495 134 498 132 q 500 131 499 129 l 465 8 q 465 5 462 2 q 460 -2 456 -2 q 323 0 26 0 z"},"x":{"x_min":0,"x_max":419,"ha":419,"o":"m 408 355 q 408 343 401 336 q 394 330 384 330 q 373 330 362 339 q 352 347 343 347 q 317 347 295 315 l 227 216 l 265 83 q 275 50 286 40 q 298 30 312 30 q 340 30 382 75 q 383 76 385 76 q 389 76 391 72 q 393 69 391 67 q 324 -9 285 -9 q 265 -9 251 4 q 237 16 227 51 l 194 167 l 129 63 q 101 18 86 4 q 71 -9 48 -9 q 29 -9 14 4 q -1 18 1 36 q 6 56 26 56 q 38 56 47 47 q 57 39 67 39 q 92 39 115 71 l 189 183 l 158 292 q 140 356 106 356 q 93 356 75 344 q 57 333 36 311 q 35 310 33 310 q 30 310 28 314 q 25 317 28 319 q 62 358 88 376 q 113 395 133 395 q 153 395 169 380 q 185 365 196 325 l 223 232 l 281 323 q 309 368 324 382 q 339 395 361 395 q 379 395 394 383 q 408 371 408 355 z"},")":{"x_min":0,"x_max":278,"ha":278,"o":"m 247 430 q 247 370 235 304 q 210 162 142 49 q 74 -64 -22 -117 l -23 -117 q -26 -117 -28 -114 q -31 -110 -28 -109 q 55 -38 106 64 q 158 167 182 304 q 197 388 197 460 q 197 620 119 717 l 119 718 q 119 721 122 724 q 124 726 126 725 q 185 684 216 607 q 247 530 247 430 z"},"&":{"x_min":0,"x_max":747,"ha":747,"o":"m 747 346 q 747 309 720 280 q 692 250 654 250 q 627 250 581 271 q 563 132 490 60 q 416 -12 306 -12 q 239 -12 186 20 q 134 53 104 107 q 75 161 75 225 q 75 256 80 278 q 92 331 126 374 q 160 417 206 441 q 252 465 296 465 q 347 465 378 433 q 441 503 441 557 q 441 576 436 586 q 430 597 420 607 q 407 620 407 633 q 407 646 414 654 q 422 661 434 661 q 454 661 468 642 q 482 623 482 591 q 482 537 440 480 q 397 423 339 373 q 281 323 192 256 l 126 205 q 137 151 169 110 q 201 68 246 45 q 290 22 338 22 q 432 22 493 88 q 554 153 566 279 l 546 289 q 508 309 482 320 q 455 330 433 330 q 419 330 410 324 q 402 318 402 309 q 402 301 405 292 q 408 284 409 281 q 416 267 416 256 q 416 247 411 240 q 406 234 394 234 q 370 234 370 264 q 370 289 386 312 q 401 334 426 348 q 451 361 478 361 q 501 361 528 351 q 554 341 592 321 q 629 302 650 294 q 672 285 691 285 q 704 285 712 290 q 720 296 720 303 q 720 311 711 327 q 701 343 701 354 q 701 375 724 375 q 735 375 741 369 q 747 363 747 346 z m 121 259 q 121 240 124 220 q 141 234 197 277 q 287 348 333 389 q 317 416 294 428 q 270 439 246 439 q 206 439 172 402 q 139 365 126 310 q 121 280 121 259 z"},"_":{"x_min":0,"x_max":363,"ha":363,"o":"m -12 -55 q -12 -48 -11 -42 q -10 -37 -8 -37 l 311 -37 q 313 -37 314 -43 q 316 -49 316 -56 q 316 -63 314 -69 q 313 -75 311 -75 l -7 -75 q -9 -75 -10 -68 q -12 -62 -12 -55 z"},"v":{"x_min":0,"x_max":428,"ha":428,"o":"m 96 102 q 96 137 110 175 q 123 213 152 277 q 156 284 171 317 q 175 325 175 332 q 175 342 160 342 l 108 342 q 81 342 68 338 q 56 335 49 324 q 42 313 33 287 q 32 284 28 284 q 25 284 23 286 q 21 288 22 292 q 37 337 48 356 q 59 375 74 381 q 89 387 120 387 l 208 387 q 219 387 219 383 q 219 381 216 375 q 140 202 140 120 q 140 77 158 53 q 176 29 207 29 q 253 29 296 74 q 339 120 360 194 q 370 228 370 260 q 370 307 342 331 q 341 332 330 340 q 319 349 319 366 q 319 381 330 388 q 341 396 354 396 q 376 396 386 370 q 397 343 397 302 q 397 272 392 239 q 380 163 346 106 q 312 49 268 18 q 224 -13 184 -13 q 141 -13 118 20 q 96 54 96 102 z"},"O":{"x_min":0,"x_max":650,"ha":650,"o":"m 65 240 q 65 276 71 313 q 87 406 137 480 q 187 553 258 594 q 330 636 409 636 q 480 636 530 604 q 581 571 607 514 q 633 458 633 386 q 633 357 626 313 q 609 220 558 146 q 507 71 435 30 q 363 -12 285 -12 q 217 -12 167 20 q 117 53 91 110 q 65 168 65 240 z m 571 260 q 582 313 582 359 q 582 433 556 490 q 530 548 482 580 q 433 612 368 612 q 275 612 211 546 q 147 480 125 366 q 116 318 116 274 q 116 200 140 141 q 165 82 213 48 q 261 14 327 14 q 417 14 482 78 q 546 141 571 260 z"},"(":{"x_min":0,"x_max":278,"ha":278,"o":"m 71 178 q 71 238 83 304 q 108 446 176 559 q 244 672 340 725 l 341 725 q 344 725 346 722 q 349 718 346 717 q 263 646 212 544 q 160 441 136 304 q 121 220 121 148 q 121 -12 199 -109 l 199 -110 q 199 -113 196 -116 q 194 -118 192 -117 q 133 -76 102 1 q 71 78 71 178 z"},"C":{"x_min":0,"x_max":585,"ha":585,"o":"m 61 244 q 61 275 68 319 q 84 410 140 482 q 196 555 274 596 q 353 636 433 636 q 475 636 514 626 q 554 616 577 599 q 583 594 584 590 q 586 586 585 575 l 577 470 q 576 466 571 466 q 566 466 566 470 q 561 547 517 581 q 473 615 396 615 q 330 615 274 582 q 218 548 180 487 q 143 426 129 346 q 121 300 121 263 q 121 187 146 127 q 171 67 216 33 q 262 -1 322 -1 q 382 -1 436 37 q 491 75 530 149 q 532 151 533 151 q 536 151 538 149 q 541 147 540 145 l 510 39 q 506 26 504 22 q 501 18 492 15 q 404 -13 316 -13 q 185 -13 123 60 q 61 134 61 244 z"},"W":{"x_min":0,"x_max":856,"ha":856,"o":"m 922 613 q 890 613 864 598 q 839 583 822 543 l 582 0 q 581 -4 572 -4 q 564 -4 563 0 l 485 539 l 248 0 q 248 -4 239 -4 q 230 -4 229 0 l 151 543 q 145 582 129 598 q 113 613 84 613 q 82 613 82 619 q 82 625 84 625 q 98 625 124 623 l 161 622 q 187 622 223 624 l 261 625 q 263 625 263 619 q 263 613 261 613 q 229 613 214 603 q 199 593 199 568 q 199 557 200 551 l 267 88 l 503 625 q 505 628 513 628 q 523 628 523 625 l 601 90 l 805 551 q 815 576 815 586 q 815 601 800 607 q 786 613 751 613 q 748 613 748 619 q 748 625 751 625 l 789 624 q 817 622 841 622 q 859 622 883 624 l 922 625 q 924 625 924 619 q 924 613 922 613 z"},"A":{"x_min":0,"x_max":599,"ha":599,"o":"m 561 0 q 546 0 516 2 q 482 4 462 4 q 443 4 411 2 q 381 0 367 0 q 364 0 364 6 q 364 12 367 12 q 407 12 422 22 q 436 31 436 57 q 436 64 434 84 l 396 339 l 242 339 l 129 133 q 96 74 96 46 q 96 26 112 19 q 127 12 158 12 q 162 12 162 6 q 161 0 157 0 q 146 0 114 2 q 78 4 58 4 q 37 4 9 2 q -19 0 -34 0 q -38 0 -38 6 q -38 12 -34 12 q 32 12 94 120 l 382 635 q 384 638 389 638 q 398 638 400 633 l 483 84 q 487 54 494 40 q 500 25 515 18 q 530 12 561 12 q 565 12 565 6 q 565 0 561 0 z m 252 358 l 393 358 l 363 559 z"},"f":{"x_min":0,"x_max":260,"ha":260,"o":"m 385 675 q 380 649 354 649 q 343 649 338 656 q 332 663 325 678 q 318 694 310 703 q 302 712 287 712 q 206 712 167 439 l 158 376 l 235 380 l 263 382 q 270 382 270 376 q 270 368 258 354 q 246 341 236 343 q 229 344 204 348 q 180 351 155 352 l 101 -21 q 87 -118 70 -172 q 52 -227 26 -251 q 0 -275 -41 -275 q -72 -275 -86 -264 q -100 -252 -98 -235 q -97 -223 -88 -215 q -79 -207 -64 -207 q -51 -207 -45 -214 q -39 -221 -34 -234 q -29 -246 -24 -252 q -19 -257 -9 -257 q 4 -257 12 -242 q 21 -226 30 -182 q 40 -137 53 -47 l 104 306 l 106 331 q 106 351 94 356 q 83 361 47 361 q 44 361 44 366 q 44 368 46 370 q 47 373 48 373 q 85 373 100 383 q 116 393 120 418 q 140 541 164 606 q 188 672 224 699 q 260 726 318 726 q 350 726 368 710 q 387 695 385 675 z"},"Q":{"x_min":0,"x_max":650,"ha":650,"o":"m 681 -184 q 632 -195 595 -195 q 538 -195 476 -143 q 414 -91 370 1 q 325 -12 285 -12 q 217 -12 167 20 q 117 53 91 110 q 65 168 65 240 q 65 276 71 313 q 87 406 137 480 q 187 553 258 594 q 330 636 409 636 q 480 636 530 604 q 581 571 607 514 q 633 458 633 386 q 633 357 626 313 q 609 216 555 140 q 501 64 425 24 q 450 -34 487 -80 q 524 -125 564 -151 q 605 -177 641 -177 q 659 -177 677 -173 q 680 -172 682 -177 q 683 -182 681 -184 z m 116 274 q 116 200 140 141 q 165 82 213 48 q 261 14 327 14 q 417 14 482 78 q 546 141 571 260 q 582 313 582 359 q 582 433 556 490 q 530 548 482 580 q 433 612 368 612 q 275 612 211 546 q 147 480 125 366 q 116 318 116 274 z"},"w":{"x_min":0,"x_max":616,"ha":616,"o":"m 584 302 q 584 266 580 239 q 569 164 537 106 q 505 49 465 18 q 425 -13 392 -13 q 366 -13 345 6 q 324 26 311 59 q 280 23 247 5 q 214 -13 184 -13 q 141 -13 118 20 q 96 54 96 102 q 96 137 111 180 q 126 222 153 278 l 171 317 q 175 325 175 332 q 175 342 160 342 l 108 342 q 81 342 68 338 q 56 335 49 324 q 42 313 33 287 q 32 284 28 284 q 25 284 23 286 q 21 288 22 292 q 37 337 48 356 q 59 375 74 381 q 89 387 120 387 l 208 387 q 219 387 219 383 q 219 381 216 375 q 190 316 171 256 q 152 195 146 149 q 144 127 144 118 q 144 74 160 50 q 177 25 207 25 q 231 25 256 40 q 282 54 304 81 q 292 120 292 167 q 292 199 298 232 q 308 298 330 345 q 352 392 375 392 q 392 392 400 373 q 409 354 409 323 q 409 301 405 282 q 385 166 333 89 q 347 58 368 42 q 389 25 415 25 q 439 25 467 46 q 495 68 518 106 q 540 145 549 194 q 554 220 554 248 q 554 282 546 300 q 538 319 523 337 q 515 346 512 352 q 508 358 508 366 q 508 381 519 388 q 530 396 543 396 q 584 396 584 302 z m 314 199 q 314 150 325 111 q 365 172 377 256 q 379 267 379 286 q 379 310 372 324 q 366 337 354 337 q 339 337 330 314 q 322 292 318 261 q 314 233 314 199 z"},"-":{"x_min":0,"x_max":305,"ha":305,"o":"m 27 192 q 27 210 30 211 l 280 257 q 284 258 284 237 q 284 216 280 215 l 32 168 q 30 167 28 175 q 27 183 27 192 z"},"E":{"x_min":0,"x_max":510,"ha":510,"o":"m 509 616 l 500 557 q 497 542 495 526 q 493 509 490 494 q 489 490 483 491 q 477 492 478 495 q 481 513 481 529 q 481 567 464 589 q 447 611 416 611 l 317 611 q 284 611 268 606 q 253 601 245 587 q 237 573 232 543 l 195 335 l 343 335 q 381 335 398 350 q 415 365 421 404 q 421 407 427 407 q 429 407 432 406 q 434 404 433 402 q 428 372 425 360 l 419 325 l 413 286 l 405 234 q 404 230 398 230 q 392 231 393 235 q 397 261 397 268 q 397 294 383 305 q 369 316 336 316 l 192 316 l 151 85 q 148 67 148 55 q 148 33 162 26 q 175 18 213 18 l 344 18 q 377 18 407 54 q 437 90 454 147 q 455 150 460 149 q 466 148 465 145 q 448 91 435 15 q 433 7 430 4 q 426 0 419 0 l 15 0 q 13 0 13 6 q 13 12 15 12 q 49 12 65 17 q 81 22 89 36 q 97 50 103 81 l 185 544 q 188 562 188 575 q 188 598 174 606 q 160 613 122 613 q 119 613 119 619 q 119 625 122 625 l 503 625 q 511 625 509 616 z"},"s":{"x_min":0,"x_max":298,"ha":298,"o":"m 12 44 q 12 57 20 65 q 28 73 39 73 q 46 73 50 68 q 55 63 62 51 q 73 30 86 19 q 98 8 125 8 q 155 8 173 24 q 191 41 195 74 q 196 79 196 88 q 196 117 180 138 q 164 158 131 186 q 99 213 83 234 q 67 254 67 282 q 67 287 69 299 q 77 345 116 370 q 154 396 198 396 q 229 396 252 383 q 274 370 274 353 q 274 339 266 332 q 257 325 247 325 q 238 325 232 330 q 226 334 216 345 q 205 359 194 367 q 182 375 163 375 q 139 375 123 362 q 107 348 107 319 q 107 292 123 270 q 139 249 170 222 q 202 193 219 170 q 236 148 236 118 q 236 85 217 56 q 198 26 166 8 q 135 -11 99 -11 q 64 -11 38 5 q 12 21 12 44 z"},">":{"x_min":0,"x_max":407,"ha":407,"o":"m 30 40 q 30 48 32 55 q 34 62 37 63 l 330 188 l 330 189 l 37 315 q 34 316 32 323 q 30 330 30 338 q 30 346 32 351 q 34 356 37 354 l 371 206 q 376 204 376 189 q 376 175 371 172 l 37 25 q 34 24 32 28 q 30 33 30 40 z"},"l":{"x_min":0,"x_max":235,"ha":235,"o":"m 57 34 q 57 49 64 89 l 165 627 q 167 641 167 645 q 167 670 146 670 q 128 670 96 654 l 94 654 q 90 654 88 659 q 87 664 91 665 l 214 725 l 216 725 q 220 725 223 722 q 226 719 225 717 l 108 89 q 104 67 104 60 q 104 45 110 36 q 116 28 125 28 q 147 28 194 77 q 196 79 198 79 q 201 79 203 76 q 205 72 202 69 q 167 29 140 10 q 114 -9 90 -9 q 73 -9 65 1 q 57 11 57 34 z"},"8":{"x_min":0,"x_max":440,"ha":440,"o":"m 303 351 q 352 308 378 272 q 403 236 403 188 q 403 179 401 161 q 392 112 359 72 q 326 32 279 10 q 232 -13 181 -13 q 112 -13 72 26 q 32 66 32 123 q 32 131 34 149 q 46 216 98 274 q 149 333 210 362 q 178 393 161 422 q 144 450 144 485 q 144 493 146 509 q 160 576 210 606 q 261 636 318 636 q 366 636 394 609 q 422 582 422 535 q 422 521 419 506 q 412 465 381 424 q 350 383 303 351 z m 192 514 q 192 470 218 437 q 243 404 295 359 q 326 388 344 424 q 362 459 368 495 q 372 515 372 535 q 372 579 352 600 q 331 621 299 621 q 255 621 230 602 q 204 584 194 537 q 192 521 192 514 z m 352 160 q 352 197 337 227 q 322 257 300 280 q 279 302 242 334 l 218 355 q 167 326 134 280 q 102 233 91 175 q 88 159 88 142 q 88 84 121 44 q 154 4 209 4 q 259 4 300 42 q 341 79 350 131 q 352 141 352 160 z"},"\\":{"x_min":0,"x_max":305,"ha":305,"o":"m 115 723 q 114 727 121 730 q 128 733 136 733 q 148 733 149 727 l 221 -159 q 222 -163 214 -166 q 207 -168 199 -168 q 187 -168 187 -163 z"},"e":{"x_min":0,"x_max":339,"ha":339,"o":"m 84 215 q 79 190 79 159 q 79 95 107 58 q 135 20 187 20 q 245 20 290 53 l 292 53 q 295 53 298 50 q 300 47 297 44 q 226 -12 154 -12 q 92 -12 60 28 q 28 68 28 132 q 28 155 33 185 q 42 235 75 285 q 108 335 156 367 q 205 399 258 399 q 289 399 306 388 q 323 376 323 356 q 323 325 290 296 q 257 268 202 246 q 147 225 84 215 z m 87 229 q 161 241 208 265 q 255 289 264 324 q 266 329 266 338 q 266 356 251 364 q 236 372 215 372 q 165 372 132 332 q 100 292 87 229 z"},"b":{"x_min":0,"x_max":430,"ha":430,"o":"m 413 296 q 413 278 408 251 q 392 169 348 109 q 303 49 248 18 q 193 -13 145 -13 q 102 -13 76 6 q 49 26 49 59 q 49 63 51 75 l 156 627 q 158 639 158 644 q 158 670 135 670 q 116 670 84 654 l 82 654 q 78 654 77 659 q 76 664 80 665 l 202 725 l 204 725 q 208 725 211 722 q 214 719 213 717 l 120 209 q 154 292 212 346 q 270 399 331 399 q 369 399 391 371 q 413 343 413 296 z m 358 275 q 358 314 342 336 q 327 359 294 359 q 251 359 212 326 q 173 293 144 234 q 114 174 99 96 q 98 91 98 83 q 98 51 122 32 q 147 12 187 12 q 221 12 254 37 q 288 62 314 109 q 340 156 352 220 q 358 250 358 275 z"},"%":{"x_min":0,"x_max":517,"ha":517,"o":"m 66 404 q 66 444 84 480 q 103 516 134 538 q 165 560 200 560 q 240 560 263 532 q 286 504 286 460 q 286 445 283 430 q 273 376 236 340 q 200 303 154 303 q 114 303 90 331 q 66 359 66 404 z m 58 -6 q 54 -6 47 -1 q 40 4 42 6 l 471 550 l 473 551 q 478 551 484 546 q 491 540 489 538 l 60 -5 z m 234 423 q 240 455 240 478 q 240 513 228 532 q 215 550 192 550 q 160 550 143 520 q 126 489 117 436 q 111 408 111 383 q 111 313 163 313 q 194 313 209 341 q 224 369 234 423 z m 261 96 q 261 137 280 173 q 298 209 328 231 q 359 253 394 253 q 434 253 458 224 q 481 196 481 152 q 481 110 463 74 q 445 38 414 16 q 384 -5 350 -5 q 310 -5 286 24 q 261 52 261 96 z m 429 116 q 435 148 435 171 q 435 206 422 224 q 410 242 387 242 q 356 242 338 212 q 321 182 312 129 q 306 101 306 76 q 306 6 358 6 q 390 6 405 34 q 420 62 429 116 z"},"m":{"x_min":0,"x_max":674,"ha":674,"o":"m 654 79 q 657 79 659 76 q 661 72 658 69 q 623 29 596 10 q 570 -9 546 -9 q 530 -9 523 0 q 516 10 516 32 q 516 53 522 89 l 551 248 q 556 276 556 304 q 556 365 515 365 q 482 365 446 322 q 410 279 378 198 q 347 116 327 6 q 326 0 320 -4 q 313 -8 302 -8 q 289 -8 286 -6 q 282 -5 282 -2 l 287 21 l 297 74 l 329 248 q 333 276 333 302 q 333 334 324 350 q 315 365 295 365 q 263 365 227 322 q 191 279 160 198 q 128 116 108 6 q 106 0 100 -4 q 93 -8 82 -8 q 69 -8 66 -6 q 62 -5 62 -2 q 62 1 72 47 l 76 68 l 118 297 q 121 314 121 325 q 121 358 101 358 q 89 358 70 346 q 50 334 29 311 q 28 310 26 310 q 23 310 20 314 q 18 317 21 319 q 87 395 136 395 q 152 395 159 386 q 166 376 166 354 q 166 333 160 297 l 138 172 q 173 278 222 338 q 270 399 323 399 q 352 399 366 382 q 381 365 381 328 q 381 301 374 267 l 356 167 q 392 275 441 337 q 490 399 543 399 q 573 399 588 382 q 602 364 602 326 q 602 302 596 267 l 564 89 q 561 73 561 61 q 561 28 580 28 q 603 28 650 77 q 652 79 654 79 z"},"#":{"x_min":0,"x_max":433,"ha":433,"o":"m 410 297 q 410 276 406 276 l 334 276 l 280 115 l 340 115 q 343 115 343 99 q 343 77 339 77 l 267 77 l 214 -82 q 214 -84 209 -84 q 203 -84 194 -81 q 186 -78 187 -75 l 238 77 l 116 77 l 63 -82 q 63 -84 58 -84 q 52 -84 44 -81 q 35 -78 36 -75 l 87 77 l 28 77 q 27 77 26 83 q 24 89 24 96 q 24 103 25 109 q 26 115 28 115 l 99 115 l 153 276 l 95 276 q 93 276 92 282 q 91 288 91 295 q 91 302 92 308 q 94 313 95 313 l 166 313 l 222 482 q 222 484 226 484 q 232 484 241 480 q 250 476 249 473 l 195 313 l 317 313 l 373 482 q 373 484 377 484 q 383 484 392 480 q 401 476 400 473 l 346 313 l 407 313 q 410 313 410 297 z m 250 115 l 304 276 l 183 276 l 129 115 z"},",":{"x_min":0,"x_max":222,"ha":222,"o":"m 121 2 q 121 -44 94 -82 q 66 -119 13 -159 q 12 -160 10 -160 q 7 -160 5 -156 q 3 -152 6 -150 q 44 -122 65 -94 q 86 -66 91 -34 q 92 -28 92 -18 q 92 -5 89 3 q 80 -8 62 -8 q 45 -8 36 2 q 26 11 26 27 q 26 44 38 54 q 49 63 70 63 q 93 63 107 47 q 121 31 121 2 z"},"n":{"x_min":0,"x_max":463,"ha":463,"o":"m 443 79 q 446 79 448 76 q 451 72 448 69 q 413 29 386 10 q 360 -9 336 -9 q 319 -9 312 0 q 305 10 305 33 q 305 53 311 89 l 340 248 q 347 279 347 305 q 347 365 301 365 q 267 365 230 322 q 194 279 162 198 q 129 116 109 6 q 108 0 101 -4 q 94 -8 83 -8 q 70 -8 66 -6 q 62 -5 62 -2 l 66 19 q 68 26 72 43 q 75 60 77 74 l 118 297 q 121 314 121 325 q 121 358 101 358 q 89 358 70 346 q 50 334 29 311 q 28 310 26 310 q 23 310 20 314 q 18 317 21 319 q 87 395 136 395 q 152 395 159 386 q 166 376 166 354 q 166 333 160 297 l 137 164 q 173 274 224 336 q 274 399 329 399 q 362 399 378 382 q 393 364 393 327 q 393 307 386 267 l 353 89 q 350 73 350 62 q 350 28 371 28 q 393 28 440 77 q 442 79 443 79 z"},"h":{"x_min":0,"x_max":443,"ha":443,"o":"m 424 79 q 427 79 429 76 q 431 72 428 69 q 393 29 366 10 q 340 -9 316 -9 q 299 -9 292 0 q 285 10 285 33 q 285 53 291 89 l 320 248 q 326 281 326 305 q 326 365 281 365 q 247 365 210 322 q 174 279 142 198 q 109 116 89 6 q 88 0 81 -4 q 74 -8 63 -8 q 42 -8 42 -2 l 46 19 q 48 26 52 43 q 55 60 57 74 l 161 627 q 163 641 163 645 q 163 670 141 670 q 122 670 90 654 l 88 654 q 84 654 83 658 q 82 663 85 665 l 208 725 l 210 725 q 214 725 217 722 q 220 719 219 717 l 119 170 q 156 277 206 338 q 255 399 309 399 q 341 399 356 382 q 372 364 372 326 q 372 302 366 267 l 333 89 q 330 73 330 61 q 330 28 350 28 q 373 28 420 77 q 422 79 424 79 z"},"z":{"x_min":0,"x_max":344,"ha":344,"o":"m 348 397 q 351 397 353 394 q 355 390 353 388 l 65 57 q 76 64 101 64 q 125 64 197 51 q 255 41 270 41 q 286 41 295 51 q 304 61 315 89 q 315 90 318 90 q 321 90 324 88 q 327 87 326 85 q 312 44 303 26 q 294 7 284 1 q 273 -5 255 -5 q 231 -5 198 1 q 164 7 155 8 q 93 21 56 22 q 40 22 28 16 q 16 10 1 -7 l 0 -7 q -2 -7 -4 -4 q -7 0 -6 1 l 285 334 q 272 325 247 325 q 232 325 209 329 q 186 333 164 338 q 118 349 101 349 q 85 349 76 338 q 67 326 55 298 q 54 295 51 295 q 48 295 46 298 q 43 300 44 304 q 60 348 70 366 q 79 384 90 390 q 102 395 125 394 q 146 393 202 381 q 261 369 291 367 q 307 367 319 373 q 331 379 346 396 z"},"B":{"x_min":0,"x_max":511,"ha":511,"o":"m 465 215 q 465 199 462 181 q 453 131 422 88 q 390 46 344 21 q 297 -4 246 -4 q 215 -4 180 -1 q 168 0 151 1 q 134 2 113 2 l 52 1 q 36 0 9 0 q 6 0 6 6 q 6 12 9 12 q 44 12 62 18 q 81 23 90 38 q 99 52 104 82 l 186 545 q 189 563 189 574 q 189 598 174 606 q 159 613 118 613 q 114 613 114 619 q 114 625 118 625 l 163 624 q 201 622 221 622 q 239 622 254 623 q 270 624 280 625 q 307 628 327 628 q 397 628 431 600 q 465 571 465 524 q 465 513 461 491 q 450 442 415 407 q 380 372 325 353 q 390 349 428 311 q 465 273 465 215 z m 199 352 l 240 351 q 316 351 359 390 q 402 428 413 491 q 416 508 416 523 q 416 565 390 590 q 364 615 306 615 q 280 615 268 611 q 255 607 246 591 q 238 575 232 540 z m 409 200 q 409 261 373 296 q 337 331 270 332 q 235 333 195 330 l 151 80 q 148 67 148 56 q 148 31 166 22 q 185 12 234 12 q 308 12 352 54 q 395 95 406 164 q 409 184 409 200 z"},"K":{"x_min":0,"x_max":587,"ha":587,"o":"m 609 613 q 574 613 534 598 q 495 582 456 544 l 263 375 l 364 199 q 416 109 444 70 q 473 31 492 22 q 510 12 540 12 q 543 12 543 6 q 543 0 540 0 l 457 0 q 426 0 418 4 q 409 9 374 74 q 339 139 335 145 l 223 340 l 186 309 l 146 81 q 140 45 140 39 q 140 23 152 18 q 164 12 198 12 q 200 12 200 6 q 200 0 198 0 q 174 0 161 1 l 108 2 l 50 1 q 36 0 11 0 q 8 0 8 6 q 8 12 11 12 q 44 12 60 17 q 77 22 86 36 q 94 51 99 81 l 181 544 q 184 562 184 575 q 184 598 170 606 q 156 613 118 613 q 116 613 116 619 q 116 625 118 625 l 158 624 q 194 622 215 622 q 237 622 275 624 l 316 625 q 318 625 318 619 q 318 613 316 613 q 283 613 266 607 q 250 601 242 586 q 234 572 228 542 l 190 330 l 437 550 q 475 586 475 599 q 475 607 464 610 q 452 613 428 613 q 426 613 426 619 q 426 625 428 625 l 463 624 q 495 622 523 622 q 549 622 579 624 l 609 625 q 612 625 612 619 q 612 613 609 613 z"},"R":{"x_min":0,"x_max":608,"ha":608,"o":"m 582 0 l 485 0 q 461 0 412 88 q 362 175 299 328 q 270 318 237 318 q 222 318 200 320 l 157 81 q 153 62 153 47 q 153 26 167 19 q 181 12 222 12 q 226 12 226 6 q 226 0 223 0 q 195 0 180 1 l 119 2 l 59 1 q 42 0 14 0 q 10 0 10 6 q 10 12 14 12 q 49 12 68 18 q 86 23 95 37 q 104 51 110 81 l 192 544 q 196 570 196 575 q 196 598 181 606 q 166 613 125 613 q 121 613 121 619 q 121 625 125 625 l 168 624 q 206 622 228 622 q 244 622 258 623 q 273 624 284 625 q 312 628 335 628 q 396 628 428 603 q 461 578 461 532 q 461 476 427 425 q 393 374 339 345 q 396 216 436 146 q 475 75 510 44 q 544 12 582 12 q 586 12 586 6 q 586 0 582 0 z m 256 340 q 322 340 356 370 q 390 401 402 469 q 407 497 407 516 q 407 567 382 591 q 356 615 311 615 q 285 615 273 611 q 261 607 253 592 q 245 577 239 542 l 204 344 q 236 340 256 340 z"},"T":{"x_min":0,"x_max":553,"ha":553,"o":"m 149 12 q 182 12 198 17 q 215 22 223 36 q 231 51 236 81 l 318 544 q 321 562 321 574 q 321 595 308 602 q 296 609 262 609 l 235 609 q 192 609 166 596 q 140 583 122 554 q 104 524 89 469 q 89 467 85 467 q 82 467 79 468 q 76 470 77 471 q 85 495 100 554 q 114 614 120 647 q 121 650 127 650 q 133 649 132 646 q 129 625 171 625 q 245 622 354 622 q 405 622 467 624 l 530 625 q 560 625 575 630 q 590 635 596 650 q 598 653 603 652 q 608 652 607 648 q 599 622 586 564 q 574 507 568 471 q 567 468 562 468 q 556 469 557 473 q 563 509 563 534 q 563 576 542 592 q 520 609 468 609 l 441 609 q 413 609 398 604 q 384 598 377 584 q 370 570 365 542 l 284 81 q 281 62 281 50 q 281 27 295 20 q 309 12 349 12 q 351 12 351 6 q 351 0 349 0 q 324 0 309 1 l 248 2 l 190 1 q 175 0 149 0 q 146 0 146 6 q 146 12 149 12 z"},"P":{"x_min":0,"x_max":496,"ha":496,"o":"m 12 12 q 45 12 62 17 q 78 22 86 36 q 95 51 101 81 l 182 544 q 186 561 186 576 q 186 598 172 606 q 157 613 119 613 q 117 613 117 619 q 117 625 119 625 l 159 624 q 195 622 216 622 q 227 622 263 624 q 309 628 340 628 q 411 628 457 594 q 503 559 503 492 q 503 472 499 453 q 488 390 448 347 q 407 304 354 283 q 302 262 253 262 q 228 262 212 267 q 210 267 210 270 q 210 273 212 277 q 214 281 216 280 q 229 276 246 276 q 288 276 328 294 q 369 311 400 346 q 430 382 440 433 q 444 453 444 476 q 444 540 408 578 q 371 615 318 615 q 282 615 267 612 q 252 608 244 593 q 235 578 228 542 l 147 81 q 143 55 143 49 q 143 27 158 20 q 172 12 211 12 q 213 12 213 6 q 213 0 211 0 q 185 0 170 1 l 109 2 l 52 1 q 37 0 12 0 q 9 0 9 6 q 9 12 12 12 z"},"|":{"x_min":0,"x_max":152,"ha":152,"o":"m 19 -160 q 11 -160 5 -158 q -1 -155 0 -151 l 154 731 q 155 736 168 736 q 176 736 182 734 q 189 731 188 727 l 33 -154 q 32 -160 19 -160 z"},"t":{"x_min":0,"x_max":294,"ha":294,"o":"m 294 374 q 291 365 281 354 q 271 343 262 343 q 257 343 222 348 q 186 352 153 353 l 108 102 q 104 78 104 70 q 104 45 116 33 q 128 21 153 21 q 181 21 204 33 q 227 45 253 68 l 254 68 q 257 68 260 65 q 263 62 261 60 q 217 22 184 5 q 150 -12 120 -12 q 92 -12 74 2 q 56 17 56 48 q 56 54 58 68 l 102 306 q 106 325 106 339 q 106 353 98 357 q 90 361 68 361 q 65 361 65 366 q 65 368 66 370 q 68 373 69 373 q 101 373 124 394 q 148 414 154 447 q 154 450 162 450 q 172 450 170 447 l 157 375 q 208 377 254 380 l 287 382 q 296 382 294 374 z"},"M":{"x_min":0,"x_max":730,"ha":730,"o":"m 764 613 q 719 613 698 600 q 676 586 670 546 l 601 81 q 598 63 598 52 q 598 28 612 20 q 626 12 665 12 q 668 12 668 6 q 668 0 665 0 q 641 0 626 1 l 566 2 l 508 1 q 493 0 467 0 q 464 0 464 6 q 464 12 467 12 q 501 12 518 17 q 534 22 542 36 q 550 51 554 81 l 625 556 l 329 7 q 327 3 322 3 q 317 3 315 8 l 202 542 l 200 550 l 120 104 q 116 83 116 63 q 116 35 128 24 q 139 12 167 12 q 170 12 170 6 q 170 0 167 0 q 148 0 137 1 l 94 2 l 53 1 q 41 0 19 0 q 16 0 16 6 q 16 12 19 12 q 55 12 74 32 q 92 53 102 104 l 189 579 q 169 613 127 613 q 125 613 125 619 q 125 625 127 625 l 157 624 q 166 623 180 623 q 193 623 201 624 q 209 625 214 625 q 225 625 231 615 q 237 605 244 573 l 350 81 l 630 600 q 637 611 646 618 q 654 625 661 625 q 666 625 676 624 q 685 623 698 623 l 737 624 q 746 625 764 625 q 766 625 766 619 q 766 613 764 613 z"},"g":{"x_min":0,"x_max":405,"ha":405,"o":"m 380 406 l 294 -70 q 275 -174 222 -228 q 170 -281 85 -281 q 41 -281 12 -262 q -16 -243 -16 -214 q -16 -180 14 -180 q 25 -180 30 -186 q 36 -192 44 -207 q 55 -231 72 -244 q 89 -258 126 -258 q 168 -258 200 -222 q 231 -187 248 -94 l 299 200 q 252 104 192 46 q 133 -13 80 -13 q 20 -13 20 61 q 20 69 22 91 q 32 162 74 234 q 117 306 174 352 q 231 399 282 399 q 301 399 318 392 q 335 385 346 371 q 365 388 368 407 q 369 410 375 409 q 381 408 380 406 z m 313 283 q 315 291 315 305 q 315 333 299 350 q 283 367 253 367 q 216 367 177 335 q 138 303 108 248 q 79 193 69 127 q 66 106 66 89 q 66 30 109 30 q 146 30 189 68 q 232 106 266 166 q 301 225 313 283 z"},"j":{"x_min":0,"x_max":237,"ha":237,"o":"m 142 556 q 142 573 152 583 q 163 593 182 593 q 201 593 211 583 q 221 573 221 556 q 221 537 211 527 q 201 517 182 517 q 163 517 152 527 q 142 537 142 556 z m -78 -239 q -78 -224 -69 -216 q -60 -207 -48 -207 q -38 -207 -34 -214 q -29 -221 -25 -234 q -20 -248 -16 -254 q -11 -261 -2 -261 q 21 -261 36 -218 q 51 -175 70 -64 l 132 297 q 135 314 135 325 q 135 358 115 358 q 103 358 84 346 q 65 334 43 311 q 42 310 40 310 q 37 310 34 314 q 32 317 35 319 q 69 358 97 376 q 125 395 150 395 q 166 395 173 386 q 180 376 180 354 q 180 333 174 297 l 116 -42 q 100 -136 83 -185 q 66 -234 42 -254 q 17 -275 -23 -275 q -50 -275 -64 -264 q -78 -254 -78 -239 z"},"i":{"x_min":0,"x_max":247,"ha":247,"o":"m 132 556 q 132 573 142 583 q 153 593 172 593 q 191 593 201 583 q 211 573 211 556 q 211 537 201 527 q 191 517 172 517 q 153 517 142 527 q 132 537 132 556 z m 77 34 q 77 57 84 89 l 125 297 q 128 314 128 325 q 128 341 122 350 q 117 358 108 358 q 96 358 76 346 q 57 334 36 311 q 35 310 33 310 q 30 310 28 314 q 25 317 28 319 q 62 358 90 376 q 118 395 142 395 q 159 395 166 386 q 174 376 174 354 q 174 331 167 297 l 127 89 q 124 73 124 60 q 124 28 144 28 q 156 28 175 40 q 194 53 215 75 q 216 76 218 76 q 222 76 224 72 q 226 69 223 67 q 157 -9 110 -9 q 93 -9 85 0 q 77 10 77 34 z"},"y":{"x_min":0,"x_max":432,"ha":432,"o":"m 398 388 q 397 382 392 358 q 386 333 382 312 l 312 -70 q 274 -281 112 -281 q 71 -281 44 -262 q 18 -243 18 -215 q 18 -196 26 -187 q 35 -178 47 -178 q 56 -178 60 -184 q 65 -190 72 -204 q 84 -230 100 -245 q 116 -260 152 -260 q 239 -260 268 -94 l 324 227 q 287 115 236 51 q 186 -13 131 -13 q 98 -13 82 4 q 66 21 66 58 q 66 81 74 119 l 110 297 q 113 314 113 325 q 113 358 92 358 q 72 358 23 309 q 21 307 20 307 q 17 307 15 310 q 13 314 15 317 q 51 357 77 376 q 103 395 127 395 q 144 395 152 386 q 159 376 159 354 q 159 331 152 297 l 119 138 q 112 100 112 82 q 112 21 159 21 q 193 21 230 64 q 266 107 298 188 q 331 270 351 380 q 352 386 358 390 q 365 394 377 394 q 398 394 398 388 z"},"@":{"x_min":0,"x_max":717,"ha":717,"o":"m 414 111 q 414 118 416 136 l 428 199 q 393 131 349 90 q 305 48 267 48 q 245 48 231 62 q 217 77 217 107 q 217 119 218 125 q 226 179 259 232 q 292 286 336 320 q 379 354 418 354 q 448 354 464 335 q 475 346 478 361 q 480 363 486 363 q 498 363 496 360 l 455 136 q 451 112 451 104 q 451 86 459 77 q 467 68 488 68 q 517 68 545 88 q 573 109 591 147 q 609 185 609 236 q 609 299 576 352 q 544 406 488 437 q 432 468 364 468 q 286 468 230 432 q 173 396 144 334 q 115 273 115 198 q 115 120 150 60 q 185 1 248 -32 q 310 -65 391 -65 q 439 -65 474 -56 q 510 -46 557 -20 l 558 -20 q 560 -20 562 -24 q 565 -27 563 -28 q 477 -95 360 -95 q 280 -95 216 -62 q 151 -30 114 31 q 76 92 76 175 q 76 267 120 339 q 164 411 238 451 q 311 491 394 491 q 468 491 524 460 q 580 430 610 378 q 641 326 641 264 q 641 209 617 160 q 593 110 552 80 q 512 50 467 50 q 440 50 427 66 q 414 82 414 111 z m 441 269 q 443 279 443 285 q 443 305 431 318 q 419 331 396 331 q 371 331 342 306 q 313 282 290 241 q 268 200 261 153 q 258 135 258 122 q 258 81 288 81 q 316 81 348 109 q 380 137 406 181 q 431 225 441 269 z"},".":{"x_min":0,"x_max":195,"ha":195,"o":"m 26 28 q 26 45 36 55 q 47 65 65 65 q 84 65 94 55 q 104 45 104 28 q 104 10 94 0 q 84 -11 65 -11 q 47 -11 36 0 q 26 10 26 28 z"},"p":{"x_min":0,"x_max":407,"ha":407,"o":"m 381 289 q 381 273 378 253 q 369 186 334 128 q 298 69 248 34 q 197 -1 145 -1 q 111 -1 83 3 l 51 -178 q 48 -195 48 -205 q 48 -224 57 -232 q 66 -241 86 -241 q 91 -241 111 -239 l 112 -239 q 115 -239 116 -244 q 117 -249 113 -250 l -55 -275 q -59 -276 -60 -270 q -61 -264 -57 -263 q -33 -259 -22 -253 q -11 -247 -6 -232 q 0 -218 6 -185 l 90 288 l 48 255 l 47 255 q 44 255 40 259 q 37 263 40 264 q 76 296 94 310 l 108 386 q 108 388 120 400 q 131 412 140 426 q 150 440 153 458 q 153 461 158 461 q 160 461 162 460 q 165 458 164 456 l 144 345 q 222 393 285 393 q 332 393 356 366 q 381 340 381 289 z m 333 263 q 333 308 314 334 q 296 360 250 360 q 223 360 197 350 q 171 341 140 322 l 91 44 q 125 27 171 27 q 238 27 278 80 q 318 132 330 220 q 333 243 333 263 z"},"X":{"x_min":0,"x_max":579,"ha":579,"o":"m 615 613 q 559 613 485 523 l 335 334 l 432 83 q 446 44 468 28 q 489 12 526 12 q 530 12 530 6 q 530 0 526 0 q 504 0 491 1 l 444 2 l 379 1 q 363 0 337 0 q 333 0 333 6 q 333 12 337 12 q 364 12 376 17 q 389 22 389 34 q 389 37 385 51 l 292 290 l 137 92 q 109 56 109 37 q 109 12 153 12 q 157 12 157 6 q 157 0 153 0 q 128 0 116 1 l 58 2 l 24 1 q 14 0 -8 0 q -12 0 -12 6 q -12 12 -8 12 q 21 12 54 32 q 86 53 117 92 l 286 306 l 195 542 q 180 581 161 597 q 142 613 111 613 q 107 613 107 619 q 107 625 111 625 l 142 624 q 164 622 173 622 q 203 622 245 624 l 289 625 q 293 625 293 619 q 293 613 289 613 q 262 613 250 608 q 238 603 238 591 q 238 582 242 573 l 329 348 l 465 524 q 497 565 497 587 q 497 613 455 613 q 451 613 451 619 q 451 625 455 625 l 492 624 q 522 622 550 622 q 564 622 584 624 l 615 625 q 620 625 620 619 q 620 613 615 613 z"},"*":{"x_min":0,"x_max":448,"ha":448,"o":"m 275 657 q 275 666 292 675 q 310 684 328 687 q 345 690 343 685 l 276 529 q 275 526 270 526 q 265 526 265 529 z m 124 559 q 111 564 111 603 q 111 617 113 626 q 115 636 118 633 l 247 520 q 248 519 248 517 q 248 515 246 512 q 245 510 243 511 z m 291 503 q 289 503 288 508 q 286 512 288 513 l 414 544 q 423 546 436 532 q 450 519 458 504 q 467 488 461 488 z m 156 382 q 145 382 130 386 q 115 391 106 396 q 96 402 99 404 l 246 491 l 248 492 q 250 492 252 489 q 255 486 254 485 l 171 387 q 167 382 156 382 z m 273 481 l 273 482 q 273 484 276 487 q 280 490 281 488 l 350 378 q 355 370 346 353 q 336 336 324 322 q 312 309 311 315 z"},"Y":{"x_min":0,"x_max":527,"ha":527,"o":"m 599 613 q 536 613 469 523 l 310 308 l 270 81 q 266 55 266 49 q 266 27 280 20 q 295 12 333 12 q 337 12 337 6 q 337 0 333 0 q 307 0 293 1 l 235 2 l 174 1 q 160 0 135 0 q 131 0 131 6 q 131 12 135 12 q 168 12 185 18 q 202 23 210 37 q 218 51 223 81 l 261 301 l 159 542 q 142 581 124 597 q 106 613 76 613 q 72 613 72 619 q 72 625 76 625 l 106 624 q 128 622 138 622 q 164 622 206 624 l 253 625 q 255 625 255 621 q 255 618 254 616 q 252 613 250 613 q 224 613 212 608 q 201 603 201 592 q 201 585 206 573 l 308 327 l 449 524 q 478 565 478 586 q 478 613 437 613 q 434 613 434 619 q 434 625 437 625 l 476 624 q 508 622 532 622 q 547 622 567 624 l 599 625 q 603 625 603 619 q 603 613 599 613 z"},"c":{"x_min":0,"x_max":345,"ha":345,"o":"m 30 142 q 30 174 36 202 q 49 263 82 308 q 116 352 160 376 q 204 399 248 399 q 285 399 310 382 q 335 366 332 342 q 331 330 324 322 q 317 313 304 313 q 282 313 271 342 q 267 356 253 368 q 239 379 215 379 q 164 379 132 338 q 101 297 89 232 q 82 192 82 166 q 82 101 110 60 q 138 18 193 18 q 226 18 251 31 q 276 44 304 67 l 306 68 q 309 68 312 64 q 314 60 312 58 q 231 -13 156 -13 q 93 -13 62 32 q 30 77 30 142 z"},"!":{"x_min":0,"x_max":219,"ha":219,"o":"m 102 192 l 111 259 q 128 379 138 463 q 148 547 150 621 q 150 625 162 629 q 173 633 186 633 q 200 633 211 629 q 222 625 221 621 q 195 542 172 448 q 149 355 122 233 l 113 191 q 112 186 106 186 q 101 187 102 192 z m 38 28 q 38 45 48 55 q 59 65 77 65 q 96 65 106 55 q 116 45 116 28 q 116 10 106 0 q 96 -11 77 -11 q 59 -11 48 0 q 38 10 38 28 z"},"/":{"x_min":0,"x_max":305,"ha":305,"o":"m -13 -168 q -20 -168 -30 -164 q -40 -159 -39 -156 l 345 730 q 347 733 351 733 q 359 733 368 728 q 377 722 374 718 l -8 -166 q -9 -168 -13 -168 z"},"[":{"x_min":0,"x_max":247,"ha":247,"o":"m 32 -106 l 177 715 q 178 722 180 724 q 181 725 186 725 l 306 725 q 310 725 310 719 q 310 713 306 713 q 269 713 250 707 q 230 701 221 686 q 212 672 207 642 l 88 -34 q 84 -58 84 -65 q 84 -88 100 -96 q 117 -105 160 -105 q 165 -105 165 -111 q 165 -117 160 -117 l 37 -117 q 32 -117 31 -115 q 30 -113 32 -106 z"},"6":{"x_min":0,"x_max":447,"ha":447,"o":"m 54 151 q 54 190 61 226 q 78 325 130 418 q 181 510 258 570 q 334 631 421 636 q 425 636 426 631 q 426 626 422 625 q 343 610 279 552 q 215 493 174 411 q 132 329 117 243 q 109 198 109 161 q 109 91 136 48 q 162 5 219 5 q 314 5 339 130 q 345 168 345 199 q 345 316 258 316 q 234 316 213 304 q 192 291 171 264 l 169 263 q 166 263 163 266 q 160 270 161 271 q 181 304 216 322 q 250 340 287 340 q 347 340 374 303 q 402 266 402 207 q 402 180 398 159 q 383 81 324 34 q 266 -13 191 -13 q 123 -13 88 31 q 54 75 54 151 z"},"r":{"x_min":0,"x_max":336,"ha":336,"o":"m 337 343 q 331 319 308 319 q 297 319 291 324 q 285 329 279 339 q 276 344 272 348 q 267 353 261 353 q 238 353 206 294 q 175 235 146 152 q 118 69 105 6 q 104 0 98 -4 q 91 -8 80 -8 q 67 -8 64 -6 q 60 -5 60 -2 l 65 21 l 75 74 l 106 249 q 113 284 113 309 q 113 358 87 358 q 64 358 26 322 l 24 321 q 22 321 20 324 q 17 328 18 330 q 75 395 122 395 q 140 395 150 382 q 159 369 159 337 q 159 303 149 249 l 128 135 q 163 242 206 318 q 249 395 287 395 q 307 395 324 379 q 341 363 337 343 z"},"2":{"x_min":0,"x_max":405,"ha":405,"o":"m -4 12 l 52 73 q 135 162 188 223 q 241 284 282 350 q 323 417 333 477 q 336 494 336 509 q 336 550 314 575 q 291 600 247 600 q 201 600 162 570 q 124 539 98 484 q 96 482 94 482 q 91 482 89 484 q 87 486 88 489 q 115 560 164 598 q 212 636 273 636 q 329 636 359 604 q 389 572 389 519 q 389 504 386 487 q 376 430 334 365 q 292 300 242 245 q 193 190 124 120 q 74 70 54 46 q 50 42 51 42 q 52 41 56 41 q 177 41 227 44 q 277 48 300 62 q 323 76 330 110 q 330 113 335 113 q 338 113 340 112 q 343 110 342 108 l 323 9 q 322 6 320 3 q 317 0 313 0 l 2 0 q -2 0 -4 4 q -6 8 -4 12 z"},"{":{"x_min":0,"x_max":260,"ha":260,"o":"m 72 -34 q 72 0 85 80 q 98 158 98 201 q 98 291 47 298 q 44 298 44 304 q 44 311 47 311 q 96 317 122 376 q 148 435 165 529 q 180 615 196 656 q 213 696 240 710 q 267 725 319 725 q 322 725 322 719 q 322 713 319 713 q 282 713 258 686 q 234 658 225 607 q 200 483 186 434 q 172 385 148 356 q 125 328 75 305 q 112 284 126 260 q 141 235 141 191 q 141 162 136 120 q 130 79 118 1 q 115 -19 115 -35 q 115 -69 130 -87 q 145 -105 173 -105 q 176 -105 176 -111 q 176 -117 173 -117 q 116 -117 94 -100 q 72 -83 72 -34 z"},"9":{"x_min":0,"x_max":447,"ha":447,"o":"m 67 -1 q 191 21 268 127 q 345 233 372 380 q 380 423 380 461 q 380 531 354 575 q 327 619 270 619 q 175 619 150 494 q 144 457 144 425 q 144 308 230 308 q 254 308 275 320 q 296 332 318 359 q 319 360 321 360 q 324 360 326 357 q 328 354 327 352 q 307 319 273 301 q 239 283 202 283 q 142 283 114 320 q 87 357 87 416 q 87 443 91 464 q 106 543 164 590 q 223 636 298 636 q 366 636 400 592 q 435 548 435 472 q 435 434 428 398 q 409 292 360 200 q 311 109 236 51 q 161 -7 68 -13 q 64 -13 64 -8 q 63 -2 67 -1 z"}," ":{"x_min":0,"x_max":234,"ha":234,"o":""},"I":{"x_min":0,"x_max":301,"ha":301,"o":"m 19 12 q 52 12 68 17 q 85 22 93 36 q 101 51 106 81 l 188 544 q 192 568 192 575 q 192 598 178 606 q 163 613 124 613 q 121 613 121 619 q 121 625 124 625 l 165 624 q 201 622 222 622 q 249 622 285 624 l 324 625 q 326 625 326 619 q 326 613 324 613 q 291 613 274 607 q 258 601 250 586 q 242 572 236 542 l 154 81 q 151 62 151 50 q 151 27 165 20 q 179 12 219 12 q 221 12 221 6 q 221 0 219 0 q 194 0 179 1 l 118 2 l 61 1 q 46 0 19 0 q 16 0 16 6 q 16 12 19 12 z"},"H":{"x_min":0,"x_max":670,"ha":670,"o":"m 699 613 q 666 613 650 608 q 634 602 626 588 q 617 574 612 544 l 530 81 q 527 63 527 50 q 527 27 542 20 q 556 12 594 12 q 597 12 597 6 q 597 0 594 0 q 568 0 553 1 l 496 2 l 437 1 q 422 0 395 0 q 393 0 393 6 q 393 12 395 12 q 429 12 446 17 q 462 22 470 36 q 478 50 483 81 l 524 316 l 188 316 l 146 81 q 142 55 142 49 q 142 27 156 20 q 171 12 209 12 q 212 12 212 6 q 212 0 209 0 q 183 0 168 1 l 108 2 l 50 1 q 36 0 11 0 q 8 0 8 6 q 8 12 11 12 q 44 12 60 17 q 77 22 86 36 q 94 51 99 81 l 181 544 q 184 562 184 575 q 184 598 170 606 q 156 613 118 613 q 116 613 116 619 q 116 625 118 625 l 158 624 q 194 622 215 622 q 237 622 275 624 l 316 625 q 318 625 318 619 q 318 613 316 613 q 283 613 266 607 q 250 601 242 586 q 234 572 228 542 l 191 335 l 528 335 l 564 542 q 568 568 568 575 q 568 597 554 605 q 540 613 502 613 q 499 613 499 619 q 499 625 502 625 l 542 624 q 578 622 600 622 q 622 622 658 624 l 699 625 q 702 625 702 619 q 702 613 699 613 z"},"4":{"x_min":0,"x_max":428,"ha":428,"o":"m 377 177 l 297 181 l 280 81 q 276 62 276 47 q 276 26 289 19 q 302 12 337 12 q 342 12 342 6 q 342 0 337 0 q 314 0 301 1 l 246 2 l 179 1 q 162 0 132 0 q 128 0 128 6 q 128 12 132 12 q 176 12 195 16 q 214 21 222 34 q 230 48 235 81 l 253 182 q 129 184 22 184 q 17 184 16 188 q 14 191 18 195 l 363 630 q 365 632 368 632 q 371 632 374 630 q 376 629 375 626 l 304 216 l 384 219 q 388 219 384 198 q 380 177 377 177 z m 259 215 l 316 541 l 65 220 q 59 213 68 213 q 149 213 259 215 z"},"~":{"x_min":0,"x_max":443,"ha":443,"o":"m 54 154 q 52 154 50 156 q 47 159 48 161 q 104 230 159 230 q 173 230 191 225 q 209 220 227 214 q 253 204 273 199 q 293 194 313 194 q 342 194 358 204 q 373 214 389 233 l 390 233 q 393 233 396 230 q 398 228 396 226 q 362 185 340 171 q 318 157 292 157 q 273 157 256 162 q 238 166 213 175 q 187 184 169 188 q 151 193 130 193 q 106 193 94 186 q 81 179 70 168 q 59 158 55 154 z"},"D":{"x_min":0,"x_max":606,"ha":606,"o":"m 177 -1 q 165 0 148 1 q 131 2 110 2 l 50 1 q 36 0 11 0 q 8 0 8 6 q 8 12 11 12 q 44 12 60 17 q 77 22 86 36 q 94 51 99 81 l 181 544 q 185 570 185 576 q 185 598 170 606 q 156 613 118 613 q 116 613 116 619 q 116 625 118 625 l 159 624 q 197 622 219 622 q 250 622 281 625 q 319 627 331 627 q 410 627 468 596 q 527 564 558 508 q 589 453 589 382 q 589 348 584 323 q 567 226 514 152 q 460 77 386 36 q 311 -4 232 -4 q 207 -4 177 -1 z m 522 301 q 529 340 529 381 q 529 485 478 550 q 428 614 337 614 q 299 614 278 609 q 258 604 246 588 q 234 573 228 542 l 149 92 q 145 68 145 61 q 145 34 163 22 q 181 9 226 9 q 297 9 358 43 q 420 77 462 143 q 505 209 522 301 z"},"^":{"x_min":0,"x_max":353,"ha":353,"o":"m 93 374 q 90 374 87 376 q 84 378 85 380 l 243 629 q 246 634 254 634 q 263 634 263 629 l 333 380 q 333 378 328 376 q 324 374 323 377 l 241 557 l 96 375 q 95 374 93 374 z"},"0":{"x_min":0,"x_max":462,"ha":462,"o":"m 58 206 q 58 259 68 313 q 84 406 122 480 q 159 554 209 596 q 259 637 311 637 q 374 637 410 578 q 446 518 446 418 q 446 366 436 310 q 419 216 382 142 q 346 69 297 28 q 248 -13 195 -13 q 132 -13 95 46 q 58 106 58 206 z m 377 298 q 392 384 392 446 q 392 534 367 580 q 342 626 301 626 q 243 626 196 541 q 149 456 125 320 q 112 248 112 184 q 112 98 137 48 q 162 -1 208 -1 q 266 -1 310 79 q 353 159 377 298 z"},"F":{"x_min":0,"x_max":483,"ha":483,"o":"m 506 616 l 488 494 q 487 490 481 491 q 475 492 476 495 q 479 513 479 528 q 479 566 462 588 q 445 611 414 611 l 315 611 q 282 611 266 606 q 250 601 242 587 q 235 573 229 543 l 191 323 l 329 323 q 367 323 384 338 q 401 354 407 392 q 408 396 414 396 q 420 395 419 391 q 411 343 410 340 l 405 313 q 400 287 395 250 l 391 222 q 390 218 384 218 q 378 219 379 223 q 382 241 382 255 q 382 282 368 293 q 355 304 322 304 l 187 304 l 149 85 q 145 61 145 53 q 145 29 166 20 q 187 12 247 12 q 249 12 249 6 q 249 0 247 0 q 212 0 192 1 l 110 2 l 54 1 q 39 0 13 0 q 10 0 10 6 q 10 12 13 12 q 46 12 62 17 q 79 22 87 36 q 95 51 101 81 l 182 544 q 186 561 186 576 q 186 597 172 605 q 157 613 119 613 q 117 613 117 619 q 117 625 119 625 l 501 625 q 509 625 506 616 z"},"`":{"x_min":0,"x_max":166,"ha":166,"o":"m 135 727 q 134 732 146 730 q 157 729 169 724 q 181 720 181 716 l 181 476 q 181 474 176 473 q 172 472 172 475 z"},"k":{"x_min":0,"x_max":418,"ha":418,"o":"m 405 76 q 409 76 411 72 q 413 69 411 67 q 344 -9 305 -9 q 283 -9 266 6 q 250 20 228 58 l 170 160 q 161 175 154 182 q 146 188 135 188 q 132 188 122 186 l 89 6 q 88 0 81 -4 q 74 -8 63 -8 q 42 -8 42 -2 l 46 19 q 48 26 52 43 q 55 60 57 74 l 161 627 q 163 641 163 645 q 163 670 141 670 q 122 670 90 654 l 88 654 q 84 654 83 658 q 82 663 85 665 l 208 725 l 210 725 q 214 725 217 722 q 220 719 219 717 l 143 301 q 180 346 227 372 q 274 399 323 399 q 351 399 363 384 q 375 370 375 351 q 375 342 374 339 q 367 304 321 270 q 275 236 199 209 l 267 90 q 287 55 302 42 q 316 30 332 30 q 360 30 402 75 q 403 76 405 76 z m 126 208 l 124 199 q 220 222 262 248 q 303 275 313 324 q 315 334 315 339 q 315 354 306 363 q 298 372 284 372 q 230 372 187 328 q 144 283 126 208 z"},"u":{"x_min":0,"x_max":462,"ha":462,"o":"m 436 76 q 439 76 442 72 q 444 69 441 67 q 407 28 379 10 q 351 -9 326 -9 q 310 -9 303 0 q 296 10 296 32 q 296 53 302 89 l 325 222 q 289 112 238 50 q 188 -13 133 -13 q 100 -13 84 4 q 68 21 68 58 q 68 81 76 119 l 112 297 q 115 314 115 325 q 115 341 110 350 q 104 358 95 358 q 73 358 26 309 q 24 307 22 307 q 19 307 17 310 q 15 314 18 317 q 53 357 80 376 q 106 395 130 395 q 146 395 154 386 q 162 376 162 354 q 162 335 154 297 l 122 138 q 115 106 115 80 q 115 21 161 21 q 195 21 232 64 q 268 107 300 188 q 333 270 353 380 q 354 386 361 390 q 368 394 379 394 q 400 394 400 388 l 396 367 q 394 360 390 343 q 387 326 385 312 l 344 89 q 341 73 341 61 q 341 28 361 28 q 373 28 392 40 q 412 52 433 75 q 434 76 436 76 z"},"]":{"x_min":0,"x_max":247,"ha":247,"o":"m 255 714 l 110 -107 q 109 -114 108 -116 q 106 -117 101 -117 l -19 -117 q -23 -117 -23 -111 q -23 -105 -19 -105 q 18 -105 38 -99 q 57 -93 66 -78 q 75 -64 80 -34 l 199 642 q 203 666 203 673 q 203 696 186 704 q 170 713 127 713 q 123 713 123 719 q 123 725 127 725 l 250 725 q 255 725 256 723 q 257 721 255 714 z"},"U":{"x_min":0,"x_max":692,"ha":692,"o":"m 717 613 q 684 613 668 608 q 652 602 644 588 q 635 574 629 544 l 547 81 q 544 63 544 51 q 544 27 560 20 q 576 12 623 12 q 627 12 627 6 q 627 0 623 0 l 545 1 l 502 0 q 494 0 492 2 q 489 3 489 9 l 490 19 l 503 93 q 441 38 388 13 q 336 -12 281 -12 q 201 -12 154 30 q 107 72 107 145 q 107 158 111 186 l 174 544 q 178 570 178 576 q 178 598 164 606 q 149 613 111 613 q 109 613 109 619 q 109 625 111 625 l 151 624 q 187 622 208 622 q 230 622 268 624 l 309 625 q 311 625 311 619 q 311 613 309 613 q 276 613 260 607 q 243 601 235 586 q 227 572 221 542 l 165 221 q 159 188 159 160 q 159 87 196 50 q 234 13 304 13 q 353 13 400 36 q 447 58 506 111 l 581 542 q 585 561 585 576 q 585 598 571 606 q 557 613 519 613 q 517 613 517 619 q 517 625 519 625 l 559 624 q 595 622 618 622 q 639 622 675 624 l 717 625 q 719 625 719 619 q 719 613 717 613 z"},"o":{"x_min":0,"x_max":396,"ha":396,"o":"m 29 139 q 29 169 34 193 q 45 250 76 298 q 106 345 150 372 q 194 399 242 399 q 303 399 336 356 q 370 314 370 248 q 370 222 364 193 q 352 132 319 85 q 286 38 242 12 q 198 -14 153 -14 q 95 -14 62 28 q 29 70 29 139 z m 318 149 q 323 177 323 203 q 323 272 294 324 q 266 375 213 375 q 167 375 130 336 q 93 298 80 236 q 74 209 74 180 q 74 111 104 61 q 135 11 188 11 q 233 11 270 48 q 306 85 318 149 z"},"N":{"x_min":0,"x_max":650,"ha":650,"o":"m 681 613 q 645 613 626 592 q 606 571 598 520 l 504 -11 q 503 -14 498 -14 q 494 -15 492 -11 l 207 543 l 196 563 l 117 104 q 113 81 113 62 q 113 35 125 24 q 137 12 164 12 q 166 12 166 6 q 166 0 164 0 q 144 0 134 1 l 90 2 l 49 1 q 37 0 15 0 q 13 0 13 6 q 13 12 15 12 q 51 12 70 33 q 90 54 98 104 l 182 582 q 157 613 124 613 q 121 613 121 619 q 121 625 124 625 l 156 624 q 166 623 184 623 q 198 623 208 624 q 217 625 222 625 q 228 625 231 621 q 234 617 238 606 q 239 603 242 593 q 246 583 251 573 l 502 80 l 579 520 q 583 543 583 562 q 583 590 571 602 q 559 613 532 613 q 530 613 530 619 q 530 625 532 625 l 562 624 q 588 622 606 622 q 621 622 647 624 l 681 625 q 683 625 683 619 q 683 613 681 613 z"},"+":{"x_min":0,"x_max":398,"ha":398,"o":"m 369 190 q 369 183 368 177 q 366 171 364 171 l 218 171 l 218 25 q 218 23 211 22 q 204 20 196 20 q 180 20 180 23 l 180 171 l 34 171 q 32 171 30 178 q 29 184 29 191 q 29 197 30 202 q 31 208 33 208 l 180 208 l 180 354 q 180 356 186 358 q 192 359 199 359 q 206 359 212 358 q 218 356 218 354 l 218 208 l 364 208 q 366 208 368 202 q 369 197 369 190 z"},"G":{"x_min":0,"x_max":630,"ha":630,"o":"m 64 239 q 64 272 70 308 q 87 403 145 478 q 203 552 288 594 q 372 636 468 636 q 509 636 544 626 q 580 616 601 598 q 607 592 607 585 l 606 575 l 598 470 q 597 466 592 466 q 586 466 586 470 q 583 541 542 578 q 502 615 429 615 q 312 615 234 542 q 156 469 132 344 q 124 298 124 261 q 124 184 152 126 q 181 68 233 36 q 285 5 354 5 q 400 5 426 14 q 452 23 468 49 q 484 75 492 126 q 500 169 500 189 q 500 208 492 218 q 485 227 467 230 q 449 233 414 233 q 412 233 410 236 q 409 238 409 241 q 409 244 410 246 q 412 249 414 249 q 477 244 518 244 q 557 244 600 247 q 604 247 604 240 q 604 233 600 233 q 578 234 568 226 q 557 219 550 196 q 543 173 533 116 q 526 72 526 54 q 525 36 524 28 q 523 22 521 20 q 519 19 512 16 q 409 -12 330 -12 q 245 -12 186 20 q 126 52 95 108 q 64 165 64 239 z"},"q":{"x_min":0,"x_max":413,"ha":413,"o":"m 276 -178 q 273 -193 273 -204 q 273 -223 282 -232 q 292 -241 314 -241 q 320 -241 336 -239 l 337 -239 q 340 -239 341 -244 q 342 -249 338 -250 l 171 -275 q 167 -276 166 -270 q 165 -264 168 -263 q 192 -259 203 -253 q 214 -247 220 -232 q 226 -218 232 -185 l 294 165 q 256 81 203 34 q 150 -13 98 -13 q 65 -13 44 14 q 24 42 24 85 q 24 97 25 103 q 34 180 74 248 q 113 317 170 358 q 226 399 283 399 q 302 399 319 392 q 336 385 347 371 q 366 386 370 407 q 371 410 376 409 q 382 408 381 406 z m 310 258 q 314 288 314 298 q 314 334 298 352 q 283 369 253 367 q 186 365 136 305 q 85 245 71 139 q 70 130 70 113 q 70 30 122 30 q 163 30 202 60 q 241 91 270 143 q 299 195 310 258 z"},"d":{"x_min":0,"x_max":443,"ha":443,"o":"m 332 89 q 329 73 329 61 q 329 28 350 28 q 370 28 419 77 q 421 79 422 79 q 425 79 428 76 q 430 72 427 69 q 391 29 365 10 q 339 -9 315 -9 q 298 -9 290 0 q 283 10 283 32 q 283 55 290 89 l 310 194 q 264 97 212 42 q 160 -13 104 -13 q 69 -13 46 10 q 24 34 24 84 q 24 106 28 126 q 41 199 82 262 q 123 324 180 362 q 237 399 295 399 q 324 399 346 383 l 392 627 q 394 639 394 644 q 394 670 371 670 q 352 670 320 654 l 318 654 q 315 654 314 659 q 312 664 316 665 l 439 725 l 441 725 q 444 725 447 722 q 450 719 449 717 z m 328 306 q 328 335 312 351 q 296 367 267 367 q 197 367 144 314 q 92 260 75 163 q 71 140 71 117 q 71 74 87 52 q 103 30 132 30 q 178 30 224 82 q 269 133 298 200 q 328 268 328 306 z"},"1":{"x_min":0,"x_max":352,"ha":352,"o":"m 37 12 q 81 12 104 18 q 126 23 136 38 q 147 52 152 82 l 227 509 q 230 524 230 534 q 230 556 215 556 q 203 556 183 544 q 163 533 123 504 l 121 503 q 116 503 114 508 q 112 513 116 515 l 280 633 q 283 635 285 635 q 291 635 290 628 l 194 80 q 191 64 191 51 q 191 34 199 26 q 207 18 226 15 q 245 12 282 12 q 284 12 284 6 q 284 0 282 0 q 249 0 231 1 l 160 2 l 88 1 q 69 0 37 0 q 35 0 35 6 q 35 12 37 12 z"},"5":{"x_min":0,"x_max":409,"ha":409,"o":"m 425 656 q 428 656 430 654 q 433 653 432 651 l 412 596 q 408 585 402 582 q 396 579 384 579 l 196 584 q 186 584 180 570 l 129 381 q 185 398 229 398 q 296 398 334 360 q 371 323 371 253 q 371 232 366 200 q 354 133 322 85 q 291 37 246 12 q 201 -12 152 -12 q 110 -12 80 8 q 49 27 27 65 l 27 66 q 27 70 32 72 q 36 75 37 71 q 54 41 83 26 q 112 12 146 12 q 211 12 252 60 q 292 109 305 188 q 311 218 311 245 q 311 304 282 337 q 252 370 191 370 q 172 370 148 366 q 123 363 106 357 q 97 357 99 368 l 172 613 q 174 620 176 622 q 178 625 185 625 q 307 625 347 626 q 387 628 400 634 q 413 639 421 655 q 422 656 425 656 z"}}}
